<?xml version="1.0" encoding="UTF-8"?>
<svg xmlns="http://www.w3.org/2000/svg"
     viewBox="0 0 1000 400"
     width="1000"
     height="400">

  <defs>
    <clipPath id="mask-shape">
      <path d="M993.28,309.91c-19.84,60.52-98.23,81.37-98.23,81.37-164.71,28.77-211.35-49.62-211.35-49.62h-379.04c-38.7,72.44-129.98,36.71-129.98,36.71C41.72,325.78,1.76,199.98,1.76,199.98c0,0,39.95-125.8,172.91-178.38,0,0,91.28-35.74,129.98,36.71h379.04s46.64-78.39,211.35-49.62c0,0,78.39,20.85,98.23,81.37,0,0,23.81,76.98-56.57,109.92,80.38,32.95,56.57,109.93,56.57,109.93"/>
    </clipPath>
  </defs>

  <!-- マスク確認用（白表示） -->
  <rect width="100%" height="100%" fill="white" clip-path="url(#mask-shape)" />

</svg>
